<svg width="200" height="200" viewBox="0 0 200 200" xmlns="http://www.w3.org/2000/svg">
  <!-- Background Circle -->
  <circle cx="100" cy="100" r="90" fill="#1a1a2e" stroke="#16213e" stroke-width="2"/>
  
  <!-- Static Pulse Rings -->
  <circle cx="100" cy="100" r="40" fill="none" stroke="#00d4ff" stroke-width="2" opacity="0.3"/>
  <circle cx="100" cy="100" r="50" fill="none" stroke="#00d4ff" stroke-width="1.5" opacity="0.2"/>
  <circle cx="100" cy="100" r="60" fill="none" stroke="#00d4ff" stroke-width="1" opacity="0.1"/>
  
  <!-- Central AI Brain Icon -->
  <g transform="translate(100, 100)">
    <!-- Brain/Circuit Pattern -->
    <circle cx="0" cy="0" r="25" fill="#0f3460" stroke="#00d4ff" stroke-width="2"/>
    
    <!-- Neural Network Nodes -->
    <circle cx="-10" cy="-10" r="3" fill="#00d4ff"/>
    <circle cx="10" cy="-10" r="3" fill="#00d4ff"/>
    <circle cx="-10" cy="10" r="3" fill="#00d4ff"/>
    <circle cx="10" cy="10" r="3" fill="#00d4ff"/>
    <circle cx="0" cy="0" r="4" fill="#ffffff"/>
    
    <!-- Connecting Lines -->
    <line x1="0" y1="0" x2="-10" y2="-10" stroke="#00d4ff" stroke-width="1" opacity="0.6"/>
    <line x1="0" y1="0" x2="10" y2="-10" stroke="#00d4ff" stroke-width="1" opacity="0.6"/>
    <line x1="0" y1="0" x2="-10" y2="10" stroke="#00d4ff" stroke-width="1" opacity="0.6"/>
    <line x1="0" y1="0" x2="10" y2="10" stroke="#00d4ff" stroke-width="1" opacity="0.6"/>
    
    <!-- Horizontal connections -->
    <line x1="-10" y1="-10" x2="10" y2="-10" stroke="#00d4ff" stroke-width="1" opacity="0.4"/>
    <line x1="-10" y1="10" x2="10" y2="10" stroke="#00d4ff" stroke-width="1" opacity="0.4"/>
  </g>
  
  <!-- Score Bars (static) -->
  <g transform="translate(100, 100)">
    <rect x="-35" y="35" width="8" height="20" fill="#4caf50"/>
    <rect x="-22" y="30" width="8" height="25" fill="#2196f3"/>
    <rect x="-9" y="25" width="8" height="30" fill="#9c27b0"/>
    <rect x="4" y="28" width="8" height="27" fill="#ff9800"/>
    <rect x="17" y="32" width="8" height="23" fill="#f44336"/>
  </g>
  
  <!-- Text -->
  <text x="100" y="170" font-family="Arial, sans-serif" font-size="18" font-weight="bold" fill="#ffffff" text-anchor="middle">
    PulseCheck
  </text>
  <text x="100" y="185" font-family="Arial, sans-serif" font-size="10" fill="#00d4ff" text-anchor="middle">
    AI Evaluation System
  </text>
</svg>